<svg version="1.2" xmlns="http://www.w3.org/2000/svg" viewBox="-65.00000000000003 -10.000000000000007 919.0000000000001 810" width="921" height="811">
	<title>coordinating-people-svgrepo-com</title>
	<style>
		.s0 { fill: #1c8a6c } 
		.s1 { fill: #28ebb6 } 
	</style>
	<g id="SVGRepo_tracerCarrier">
		<path id="Layer copy" class="s0" d="m440.2 146.6c40.4 0 73.2-32.9 73.2-73.3 0-40.4-32.8-73.3-73.2-73.3-40.5 0-73.3 32.9-73.3 73.3 0 40.4 32.8 73.3 73.3 73.3z"/>
		<path id="Layer copy 2" class="s0" d="m305.6 346.9c3.7 2 7.8 3.2 12 3.5q1.1 0.1 2.2 0.1c11.5 0 22-6.4 27.4-16.6l20-38.4v59.2c0 8.4 6.8 15.2 15.2 15.2h119.8c8.4 0 15.2-6.8 15.2-15.2v-62.7l21.9 41.9c5.3 10.2 15.8 16.6 27.3 16.6q1.1 0 2.3-0.1c4.2-0.3 8.2-1.5 12-3.5 7.3-3.8 12.6-10.2 15.1-18 2.5-7.9 1.7-16.2-2.1-23.5l-69.2-132.8c-5.3-10.2-14.9-16.6-30.4-16.6 0 0-79.5 0-105.9 0-12.4 0-21.5 6.7-26.6 16.6l-69.3 132.8c-7.9 15-2 33.7 13.1 41.5z"/>
	</g>
	<g id="SVGRepo_iconCarrier">
		<g id="Folder 1">
			<path class="s1" d="m354.2 146.6c40.4 0 73.2-32.9 73.2-73.3 0-40.4-32.8-73.3-73.2-73.3-40.5 0-73.3 32.9-73.3 73.3 0 40.4 32.8 73.3 73.3 73.3z"/>
			<path class="s1" d="m219.6 346.9c3.7 2 7.8 3.2 12 3.5q1.1 0.1 2.2 0.1c11.5 0 22-6.4 27.4-16.6l20-38.4v59.2c0 8.4 6.8 15.2 15.2 15.2h119.8c8.4 0 15.2-6.8 15.2-15.2v-62.7l21.9 41.9c5.3 10.2 15.8 16.6 27.3 16.6q1.1 0 2.3-0.1c4.2-0.3 8.2-1.5 12-3.5 7.3-3.8 12.6-10.2 15.1-18 2.5-7.9 1.7-16.2-2.1-23.5l-69.2-132.8c-5.3-10.2-14.9-16.6-30.4-16.6 0 0-79.5 0-105.9 0-12.4 0-21.5 6.7-26.6 16.6l-69.3 132.8c-7.9 15-2 33.7 13.1 41.5z"/>
		</g>
		<g>
			<g id="Folder 4">
			</g>
			<g id="SVGRepo_iconCarrier copy">
				<g id="Folder 1">
					<path class="s1" d="m354.2 146.6c40.4 0 73.2-32.9 73.2-73.3 0-40.4-32.8-73.3-73.2-73.3-40.5 0-73.3 32.9-73.3 73.3 0 40.4 32.8 73.3 73.3 73.3z"/>
					<path class="s1" d="m219.6 346.9c3.7 2 7.8 3.2 12 3.5q1.1 0.1 2.2 0.1c11.5 0 22-6.4 27.4-16.6l20-38.4v59.2c0 8.4 6.8 15.2 15.2 15.2h119.8c8.4 0 15.2-6.8 15.2-15.2v-62.7l21.9 41.9c5.3 10.2 15.8 16.6 27.3 16.6q1.1 0 2.3-0.1c4.2-0.3 8.2-1.5 12-3.5 7.3-3.8 12.6-10.2 15.1-18 2.5-7.9 1.7-16.2-2.1-23.5l-69.2-132.8c-5.3-10.2-14.9-16.6-30.4-16.6 0 0-79.5 0-105.9 0-12.4 0-21.5 6.7-26.6 16.6l-69.3 132.8c-7.9 15-2 33.7 13.1 41.5z"/>
				</g>
				<g>
					<g id="Folder 4">
					</g>
					<g id="Folder 3">
					</g>
					<g id="Folder 5">
					</g>
					<g id="Folder 2">
						<g id="Folder 6">
							<path id="Layer copy 3" class="s0" d="m366.7 579.9c0 30.7 25 55.7 55.7 55.7 30.8 0 55.7-25 55.7-55.7 0-30.7-24.9-55.7-55.7-55.7-30.7 0-55.7 25-55.7 55.7z"/>
							<path id="Layer copy 4" class="s0" d="m539.3 756.2l-52.6-100.9c-4.1-7.7-10.4-12.5-23.1-12.5 0 0-59.9 0-79.9 0-10.7 0-17 5.2-20.8 12.5l-52.7 100.9c-2.9 5.6-3.4 11.9-1.5 17.9 1.8 6 5.9 10.8 11.5 13.7 2.8 1.5 5.9 2.4 9.1 2.6q0.8 0.1 1.7 0.1c8.8 0 16.7-4.8 20.8-12.6l15.2-29.2v39.7c0 6.4 5.2 11.6 11.5 11.6h91.1c6.4 0 11.5-5.2 11.5-11.6v-42.3l16.7 31.8c4 7.8 12 12.6 20.7 12.6q0.9 0 1.7-0.1c3.2-0.2 6.3-1.1 9.2-2.6 5.5-2.9 9.6-7.7 11.5-13.7 1.9-6 1.3-12.3-1.6-17.9z"/>
							<path class="s1" d="m315.7 579.9c0 30.7 25 55.7 55.7 55.7 30.8 0 55.7-25 55.7-55.7 0-30.7-24.9-55.7-55.7-55.7-30.7 0-55.7 25-55.7 55.7z"/>
							<path class="s1" d="m488.3 756.2l-52.6-100.9c-4.1-7.7-10.4-12.5-23.1-12.5 0 0-59.9 0-79.9 0-10.7 0-17 5.2-20.8 12.5l-52.7 100.9c-2.9 5.6-3.4 11.9-1.5 17.9 1.8 6 5.9 10.8 11.5 13.7 2.8 1.5 5.9 2.4 9.1 2.6q0.8 0.1 1.7 0.1c8.8 0 16.7-4.8 20.8-12.6l15.2-29.2v39.7c0 6.4 5.2 11.6 11.5 11.6h91.1c6.4 0 11.5-5.2 11.5-11.6v-42.3l16.7 31.8c4 7.8 12 12.6 20.7 12.6q0.9 0 1.7-0.1c3.2-0.2 6.3-1.1 9.2-2.6 5.5-2.9 9.6-7.7 11.5-13.7 1.9-6 1.3-12.3-1.6-17.9z"/>
						</g>
					</g>
				</g>
			</g>
			<g id="Folder 3">
			</g>
			<g id="Folder 5">
			</g>
			<g id="Folder 2">
				<g id="Folder 6">
					<path id="Layer copy 3" class="s0" d="m676.7 579.9c0 30.7 25 55.7 55.7 55.7 30.8 0 55.7-25 55.7-55.7 0-30.7-24.9-55.7-55.7-55.7-30.7 0-55.7 25-55.7 55.7z"/>
					<path id="Layer copy 4" class="s0" d="m849.3 756.2l-52.6-100.9c-4.1-7.7-10.4-12.5-23.1-12.5 0 0-59.9 0-79.9 0-10.7 0-17 5.2-20.8 12.5l-52.7 100.9c-2.9 5.6-3.4 11.9-1.5 17.9 1.8 6 5.9 10.8 11.5 13.7 2.8 1.5 5.9 2.4 9.1 2.6q0.8 0.1 1.7 0.1c8.8 0 16.7-4.8 20.8-12.6l15.2-29.2v39.7c0 6.4 5.2 11.6 11.5 11.6h91.1c6.4 0 11.5-5.2 11.5-11.6v-42.3l16.7 31.8c4 7.8 12 12.6 20.7 12.6q0.9 0 1.7-0.1c3.2-0.2 6.3-1.1 9.2-2.6 5.5-2.9 9.6-7.7 11.5-13.7 1.9-6 1.3-12.3-1.6-17.9z"/>
					<path class="s1" d="m625.7 579.9c0 30.7 25 55.7 55.7 55.7 30.8 0 55.7-25 55.7-55.7 0-30.7-24.9-55.7-55.7-55.7-30.7 0-55.7 25-55.7 55.7z"/>
					<path class="s1" d="m798.3 756.2l-52.6-100.9c-4.1-7.7-10.4-12.5-23.1-12.5 0 0-59.9 0-79.9 0-10.7 0-17 5.2-20.8 12.5l-52.7 100.9c-2.9 5.6-3.4 11.9-1.5 17.9 1.8 6 5.9 10.8 11.5 13.7 2.8 1.5 5.9 2.4 9.1 2.6q0.8 0.1 1.7 0.1c8.8 0 16.7-4.8 20.8-12.6l15.2-29.2v39.7c0 6.4 5.2 11.6 11.5 11.6h91.1c6.4 0 11.5-5.2 11.5-11.6v-42.3l16.7 31.8c4 7.8 12 12.6 20.7 12.6q0.9 0 1.7-0.1c3.2-0.2 6.3-1.1 9.2-2.6 5.5-2.9 9.6-7.7 11.5-13.7 1.9-6 1.3-12.3-1.6-17.9z"/>
				</g>
				<g id="Folder 7">
					<path id="Layer copy 5" class="s0" d="m53.7 579.9c0 30.7 25 55.7 55.7 55.7 30.8 0 55.7-25 55.7-55.7 0-30.7-24.9-55.7-55.7-55.7-30.7 0-55.7 25-55.7 55.7z"/>
					<path id="Layer copy 6" class="s0" d="m226.3 756.2l-52.6-100.9c-4.1-7.7-10.4-12.5-23.1-12.5 0 0-59.9 0-79.9 0-10.7 0-17 5.2-20.8 12.5l-52.7 100.9c-2.9 5.6-3.4 11.9-1.5 17.9 1.8 6 5.9 10.8 11.5 13.7 2.8 1.5 5.9 2.4 9.1 2.6q0.8 0.1 1.7 0.1c8.8 0 16.7-4.8 20.8-12.6l15.2-29.2v39.7c0 6.4 5.2 11.6 11.5 11.6h91.1c6.4 0 11.5-5.2 11.5-11.6v-42.3l16.7 31.8c4 7.8 12 12.6 20.7 12.6q0.9 0 1.7-0.1c3.2-0.2 6.3-1.1 9.2-2.6 5.5-2.9 9.6-7.7 11.5-13.7 1.9-6 1.3-12.3-1.6-17.9z"/>
					<path id="Layer copy 7" class="s1" d="m2.7 579.9c0 30.7 25 55.7 55.7 55.7 30.8 0 55.7-25 55.7-55.7 0-30.7-24.9-55.7-55.7-55.7-30.7 0-55.7 25-55.7 55.7z"/>
					<path id="Layer copy 8" class="s1" d="m175.3 756.2l-52.6-100.9c-4.1-7.7-10.4-12.5-23.1-12.5 0 0-59.9 0-79.9 0-10.7 0-17 5.2-20.8 12.5l-52.7 100.9c-2.9 5.6-3.4 11.9-1.5 17.9 1.8 6 5.9 10.8 11.5 13.7 2.8 1.5 5.9 2.4 9.1 2.6q0.8 0.1 1.7 0.1c8.8 0 16.7-4.8 20.8-12.6l15.2-29.2v39.7c0 6.4 5.2 11.6 11.5 11.6h91.1c6.4 0 11.5-5.2 11.5-11.6v-42.3l16.7 31.8c4 7.8 12 12.6 20.7 12.6q0.9 0 1.7-0.1c3.2-0.2 6.3-1.1 9.2-2.6 5.5-2.9 9.6-7.7 11.5-13.7 1.9-6 1.3-12.3-1.6-17.9z"/>
				</g>
			</g>
			<path class="s1" d="m78.9 511.8c7.9 0 14.4-6.4 14.4-14.3v-49.1h289.6v49.1c0 7.9 6.4 14.3 14.3 14.3 8 0 14.4-6.4 14.4-14.3v-49.1h289.6v49.1c0 7.9 6.5 14.3 14.4 14.3 8 0 14.4-6.4 14.4-14.3v-57.1c0-11.5-9.3-20.8-20.8-20.8h-297.6v-30.5c0-8-6.4-14.4-14.4-14.4-7.9 0-14.3 6.4-14.3 14.4v30.5h-297.6c-11.5 0-20.8 9.3-20.8 20.8v57.1c0 7.9 6.4 14.3 14.4 14.3z"/>
		</g>
	</g>
</svg>