<!DOCTYPE svg PUBLIC "-//W3C//DTD SVG 1.1//EN" "http://www.w3.org/Graphics/SVG/1.1/DTD/svg11.dtd">
<!-- Uploaded to: SVG Repo, www.svgrepo.com, Transformed by: SVG Repo Mixer Tools -->
<svg fill="#28ebb6" height="800px" width="800px" version="1.1" id="Capa_1" xmlns="http://www.w3.org/2000/svg" xmlns:xlink="http://www.w3.org/1999/xlink" viewBox="0 0 408.732 408.732" xml:space="preserve">
<g id="SVGRepo_bgCarrier" stroke-width="0"/>
<g id="SVGRepo_tracerCarrier" stroke-linecap="round" stroke-linejoin="round"/>
<g id="SVGRepo_iconCarrier"> <g> <path d="M179.921,143.957c3.832,10.166,10.773,19.78,18.864,25.174l33.835,22.559l-6.377,38.674h-21.979 c-5,0-9.965,3.774-11.304,8.592l-9.944,35.785c-0.713,2.565-0.283,5.141,1.179,7.064c1.463,1.925,3.829,3.029,6.492,3.029h136.98 c2.663,0,5.029-1.105,6.492-3.029c1.462-1.925,1.892-4.5,1.179-7.064l-9.945-35.786c-1.339-4.816-6.305-8.591-11.305-8.591h-25.619 l-6.393-38.762l33.709-22.471c8.091-5.395,15.033-15.01,18.865-25.176c27.507-2.452,49.146-25.615,49.146-53.749 c0-38.055-10.528-53.933-36.234-54.439l6.246-24.401c0.735-2.87,0.188-5.765-1.501-7.941C350.616,1.248,347.948,0,344.985,0 H169.719c-2.963,0-5.631,1.248-7.321,3.425c-1.689,2.176-2.236,5.07-1.501,7.941l6.246,24.399 c-25.804,0.454-36.369,16.321-36.369,54.445C130.773,118.344,152.413,141.506,179.921,143.957z M340.417,58.074 c0.288-0.321,0.559-0.656,0.813-1.005c1.768-0.073,3.472-0.132,5.054-0.132c7.134,0,9.447,1.173,11.032,3.199 c2.411,3.082,5.285,10.801,5.285,30.069c0,14.369-9.292,26.608-22.184,31.023V58.074z M217.474,78.901 c0.29-0.891,1.579-3.799,6.01-3.799h21.509c0.057-0.029,0.128-0.081,0.173-0.126l6.648-20.458c1.37-4.214,4.534-4.541,5.471-4.541 c0.937,0,4.102,0.327,5.47,4.542l6.646,20.457c0.046,0.046,0.116,0.097,0.173,0.126h21.508c4.431,0,5.72,2.907,6.01,3.798 c0.289,0.891,0.956,4-2.628,6.606l-17.401,12.642c-0.029,0.058-0.057,0.142-0.067,0.204l6.645,20.46 c0.91,2.799,0.168,4.67-0.614,5.746c-0.985,1.356-2.525,2.134-4.227,2.134c-1.337,0-2.686-0.487-4.011-1.45L257.394,112.6 c-0.054-0.008-0.162-0.008-0.216,0l-17.404,12.643c-1.324,0.963-2.673,1.45-4.01,1.45c-1.701,0.001-3.242-0.777-4.227-2.133 c-0.783-1.077-1.524-2.948-0.614-5.748l6.648-20.459c-0.01-0.063-0.037-0.146-0.066-0.204l-17.402-12.64 C216.518,82.903,217.185,79.793,217.474,78.901z M157.252,60.138c1.585-2.025,3.898-3.199,11.031-3.199 c1.626,0,3.376,0.063,5.197,0.139c0.211,0.29,0.436,0.571,0.671,0.843v63.312c-12.891-4.415-22.184-16.653-22.184-31.021 C151.968,70.939,154.842,63.22,157.252,60.138z"/> <path d="M358.919,328.53c-2.671,0-5.358,0.735-7.985,2.185c-20.91,11.541-47.71,20.676-71.688,24.437 c-3.495,0.548-7.565,0.826-12.099,0.826c-11.703,0.001-25.235-1.829-36.198-4.894c-9.951-2.783-15.313-5.978-16.815-8.36 c2.276,0.13,6.337,0.891,10.972,1.76c9.39,1.76,22.25,4.171,34.232,4.171c5.816,0,10.946-0.582,15.247-1.729 c11.086-2.958,14.919-10.202,14.81-15.994c-0.109-5.77-3.9-10.642-9.218-11.848c-2.492-0.566-8.464-2.486-16.025-4.918 c-21.476-6.904-57.42-18.461-75.66-19.001c-11.459-0.359-39.005,3.82-54.001,6.262c-0.487,0.079-0.955,0.149-1.402,0.216 c-3.871,0.579-7.873,1.178-8.244,6.837c-0.627,9.609-1.535,23.831-2.475,38.566c-1.107,17.352-2.26,35.416-3.054,47.502 c-0.03,0.457,0.144,3.127,1.698,4.788c0.804,0.859,1.837,1.314,2.986,1.314c1.409,0,2.888-0.677,4.522-2.069 c7.738-6.6,14.29-9.371,19.461-8.192c10.44,2.37,96.993,18.344,122.139,18.346c0.001,0,0.002,0,0.003,0 c2.373,0,4.135-0.142,5.385-0.433c20.005-4.649,76.47-37.784,88.12-48.978c7.481-7.189,10.275-15.633,7.475-22.589 C369.068,331.674,364.399,328.53,358.919,328.53z"/> <path d="M99.095,300.585l-52.917-2.607c-5.029-0.229-10.093,3.514-11.336,8.362l-0.036,0.139l-9.623,87.366 c-0.582,2.437-0.127,4.885,1.256,6.74c1.411,1.892,3.69,3.034,6.253,3.133l0.079,0.002l58.567-0.008 c0.123,0.005,0.225,0.006,0.369,0.008c5.067,0,9.342-3.955,9.731-9.006l6.439-84.168c0.193-2.522-0.618-4.952-2.283-6.84 C103.93,301.818,101.622,300.71,99.095,300.585z M80.448,375.482c0,6.949-5.654,12.603-12.604,12.603 c-6.949,0-12.603-5.654-12.603-12.603c0-6.949,5.653-12.604,12.603-12.604C74.793,362.878,80.448,368.532,80.448,375.482z"/> </g> </g>
</svg>