<svg version="1.2" xmlns="http://www.w3.org/2000/svg" viewBox="0 0 800 800" width="800" height="800">
	<title>team-success</title>
	<style>
		.s0 { fill: #28ebb6 } 
		.s1 { fill: #28ebb6;stroke: #28ebb6;stroke-width: 1.5 } 
	</style>
	<g id="SVGRepo_bgCarrier">
	</g>
	<g id="SVGRepo_tracerCarrier">
	</g>
	<g id="SVGRepo_iconCarrier">
		<g>
			<path class="s0" d="m581.9 304.2c45.2 0 81.9-36.7 81.9-81.9 0-45.1-36.7-81.8-81.9-81.8-45.1 0-81.8 36.7-81.8 81.8 0 45.2 36.7 81.9 81.8 81.9z"/>
			<path class="s0" d="m760.4 452.3l-28.1-38.3c-6.5-8.7-17.1-22.7-23.8-31l-41.5-51.9c-6-7.5-12.3-12.8-24.3-12.8-0.1 0-98-0.2-98-0.2l-63.7-43.3c-7.1-4.8-18.8-14.1-25-20l-7.3-6.9h13.1c2.3 0 4.4-1 5.7-2.6 1.3-1.7 1.6-3.9 1-6.2l-8.7-31.1c-1.1-4.2-5.4-7.5-9.8-7.5h-22.3l-5.6-33.7 29.4-19.6c7-4.7 13.1-13.1 16.4-21.9 23.9-2.1 42.8-22.3 42.8-46.8 0-33.1-9.2-46.9-31.6-47.4l5.5-21.2c0.6-2.5 0.1-5-1.3-6.9-1.5-1.9-3.8-3-6.4-3h-152.5c-2.6 0-4.9 1.1-6.4 3-1.5 1.9-2 4.4-1.3 6.9l5.4 21.2c-22.4 0.4-31.6 14.2-31.6 47.4 0 24.5 18.8 44.7 42.8 46.8 3.3 8.8 9.3 17.2 16.4 21.9l29.4 19.6-5.5 33.7h-19.2c-4.3 0-8.7 3.3-9.8 7.5l-8.7 31.1c-0.6 2.3-0.2 4.5 1.1 6.2 1.2 1.6 3.3 2.6 5.6 2.6h9.9l-7.3 6.9c-6.3 5.9-18 15.2-25 20l-63.7 43.3c0 0-96.3 0.1-96.4 0.1-12.3 0-20.5 4.7-27.1 13l-41.5 51.8c-6.7 8.4-17.3 22.3-23.8 31.1l-28.1 38.3c-5.4 7.5-7.7 16.6-6.3 25.8 1.4 9.1 6.3 17.2 13.8 22.6 6 4.4 13 6.7 20.4 6.7 11 0 21.5-5.3 28-14.1l25.2-34.4-5.5 61.8-48.7 230.9c-2 9.5-0.1 19.3 5.2 27.5 5.3 8.1 13.5 13.8 23.1 15.8 2.4 0.5 5 0.8 7.5 0.8 17.2 0 32.2-12.2 35.7-29.1l45.5-216.1h11.9l6.5 73c0.8 8.7 1.2 24.1 0.8 32.9l-3.8 101.3c-0.4 9.8 3.1 19.1 9.7 26.3 6.7 7.1 15.7 11.3 25.4 11.6q0.7 0 1.4 0c19.7 0 35.8-15.4 36.5-35.1l3.8-101.3c0.5-11.9 0-30.4-1-42.2l-9.8-109.1c0-0.3-0.1-0.6-0.1-0.9l10.6-118.1 83.7-56.9c10-6.7 24.7-18.6 33.6-26.9l7.9-7.4 7.9 7.4c8.8 8.3 23.5 20.1 33.5 27l77.7 52.7 10.9 122.2c0 0.3 0 0.6-0.1 0.9l-9.7 109.1c-1 11.8-1.5 30.3-1.1 42.1l3.9 105.6c0.7 19.7 16.7 35.2 36.4 35.2q0.7 0 1.4 0c9.7-0.4 18.8-4.5 25.4-11.7 6.7-7.1 10.1-16.4 9.8-26.2l-3.9-105.5c-0.3-8.8 0.1-24.3 0.9-33l6.5-73h11.8l17.3 82.3c2.2 10.4 6.1 27.4 8.6 37.7l23.4 97.2c4 16.5 18.6 28 35.5 28 2.9 0 5.8-0.4 8.6-1.1 19.6-4.7 31.7-24.5 26.9-44.1l-23.4-97.1c-2.4-9.8-6-25.8-8.1-35.7l-20.4-97.1-6.2-68.8q1.2 1.6 2.3 3.1l28.1 38.3c6.5 8.9 17 14.2 28 14.2 7.4 0 14.4-2.3 20.4-6.7 7.5-5.5 12.4-13.6 13.8-22.7 1.4-9.1-0.9-18.3-6.3-25.8zm-287.5-401.8q0.4-0.4 0.7-0.8c1.6-0.1 3-0.1 4.4-0.1 8 0 14.2 0 14.2 28.9 0 12.5-8.1 23.2-19.3 27zm-144.7 55c-11.2-3.8-19.3-14.5-19.3-27 0-29 6.3-29 14.2-29 1.4 0 3 0.1 4.5 0.2q0.3 0.3 0.6 0.7c0 0 0 55.1 0 55.1zm50 2.9c-0.7-0.9-1.4-2.6-0.6-5l5.8-17.9c0 0.1 0-0.1-0.1-0.1l-15.1-11c-3.1-2.3-2.5-5-2.3-5.7 0.3-0.8 1.4-3.4 5.3-3.4h18.8c-0.1 0 0 0 0.1-0.1l5.7-17.8c1.2-3.6 4-3.9 4.8-3.9 0.8 0 3.5 0.3 4.7 3.9l5.9 17.9c-0.1 0 0 0 0.1 0.1l18.7-0.1c3.8 0 5 2.6 5.2 3.4 0.3 0.7 0.9 3.4-2.3 5.7l-15.2 11.1c0.1-0.1 0 0.1 0 0.1l5.8 17.8c0.8 2.4 0.2 4.1-0.5 5-0.9 1.2-2.2 1.9-3.7 1.9q-1.8-0.1-3.5-1.3l-15.2-11.1-15.3 11.1c-2.6 1.9-5.6 1.5-7.1-0.6z"/>
			<path class="s0" d="m213.5 304.2c45.2 0 81.9-36.7 81.9-81.9 0-45.1-36.7-81.8-81.9-81.8-45.1 0-81.8 36.7-81.8 81.8 0 45.2 36.7 81.9 81.8 81.9z"/>
		</g>
	</g>
	<path class="s1" d="m139 364.9l-65.4 237.8c-1.1 5.8 0.2 11.3 3.7 15.5 3.5 4.3 8.7 6.6 14.6 6.6h14.7l-24.6 116.8c-3.6 17.2 7.4 34.1 24.6 37.8q3.3 0.6 6.6 0.7c15 0 28.1-10.7 31.2-25.4l27.4-129.9h30.2c0.4 8 0.5 17.4 0.2 23.6l-3.7 98.5c-0.3 8.6 2.7 16.7 8.5 22.9 5.8 6.3 13.7 9.9 22.2 10.2q0.6 0 1.2 0c17.2 0 31.2-13.4 31.9-30.7l3.7-98.5c0.3-7.2 0.2-17-0.1-26h22.2c5.9 0 11.2-2.3 14.9-6.5 3.7-4.2 5.3-9.8 4.5-15.6l-18.8-245.4"/>
</svg>